<?xml version="1.0" standalone="no"?>
<!DOCTYPE svg PUBLIC "-//W3C//DTD SVG 20010904//EN"
 "http://www.w3.org/TR/2001/REC-SVG-20010904/DTD/svg10.dtd">
<svg version="1.0" xmlns="http://www.w3.org/2000/svg"
 width="1320.000000pt" height="1000.000000pt" viewBox="0 0 1320.000000 1000.000000"
 preserveAspectRatio="xMidYMid meet">

<g transform="translate(0.000000,1000.000000) scale(0.100000,-0.100000)"
fill="#000000" stroke="none">
<path d="M2332 6440 c14 -25 216 -382 448 -795 695 -1233 1161 -2058 1179
-2088 l17 -27 239 422 c131 233 239 424 240 426 2 2 618 -174 888 -254 66 -20
121 -33 124 -31 5 5 -134 110 -1642 1247 -506 381 -949 715 -985 743 -36 27
-164 124 -285 215 -121 91 -227 170 -235 176 -8 6 -3 -9 12 -34z"/>
<path d="M4844 6052 c-434 -235 -791 -431 -794 -437 -5 -13 751 -628 760 -618
14 16 831 1476 828 1479 -2 1 -359 -189 -794 -424z"/>
<path d="M5837 5983 c-4 -3 -7 -314 -7 -690 l0 -683 498 0 c374 0 501 3 510
12 13 13 18 242 6 272 -5 14 -45 16 -340 16 l-334 0 0 120 0 120 214 0 c186 0
215 2 220 16 8 20 8 248 0 268 -5 14 -34 16 -220 16 l-214 0 0 115 0 115 328
0 c242 0 331 3 340 12 8 8 12 54 12 143 0 89 -4 135 -12 143 -9 9 -135 12
-503 12 -271 0 -495 -3 -498 -7z"/>
<path d="M7116 5964 c-3 -9 -6 -316 -6 -684 0 -600 2 -668 16 -674 9 -3 141
-6 294 -6 304 0 377 8 497 56 155 62 265 162 338 309 53 106 75 201 75 325 0
123 -22 219 -75 327 -76 154 -215 274 -374 323 -97 31 -213 40 -497 40 -230 0
-263 -2 -268 -16z m634 -313 c152 -58 231 -185 231 -372 0 -134 -50 -242 -143
-309 -63 -46 -125 -60 -265 -60 l-123 0 0 380 0 380 125 0 c99 0 135 -4 175
-19z"/>
<path d="M8961 5963 c-5 -10 -124 -314 -266 -676 -210 -538 -254 -661 -244
-673 10 -12 41 -14 173 -12 l161 3 44 108 45 107 249 -2 249 -3 42 -105 42
-105 174 0 c154 0 175 2 178 16 3 17 -492 1324 -510 1347 -8 9 -54 12 -169 12
-141 0 -159 -2 -168 -17z m245 -645 l72 -218 -157 0 -157 0 43 128 c88 259
117 336 121 322 3 -8 38 -113 78 -232z"/>
<path d="M10090 5965 c-12 -15 18 -75 262 -525 l73 -135 -156 -277 c-222 -392
-223 -393 -216 -412 6 -14 29 -16 181 -16 l175 0 107 195 c60 107 111 195 114
195 3 0 48 -75 100 -167 51 -93 102 -180 112 -195 l19 -28 168 0 c137 0 171 3
181 15 10 12 -20 74 -176 357 -104 188 -188 346 -186 352 2 6 78 148 168 315
91 167 164 311 162 320 -3 14 -25 16 -172 19 -111 2 -173 -1 -182 -8 -7 -7
-52 -85 -100 -176 -47 -90 -90 -164 -94 -164 -4 0 -44 71 -90 158 -45 86 -90
165 -98 175 -13 15 -35 17 -177 17 -131 0 -165 -3 -175 -15z"/>
<path d="M6433 4324 c-86 -43 -99 -171 -23 -231 43 -35 118 -33 165 3 20 15
20 15 -4 35 -17 14 -27 17 -35 9 -15 -15 -73 -12 -90 6 -59 58 7 162 79 124
17 -9 28 -9 44 0 29 15 23 29 -19 52 -42 22 -75 23 -117 2z"/>
<path d="M7330 4322 c-44 -22 -73 -73 -73 -126 0 -76 58 -130 140 -128 56 0
97 31 119 87 29 77 -5 147 -85 174 -46 15 -60 14 -101 -7z m109 -68 c41 -52
21 -114 -41 -129 -21 -5 -33 -1 -52 19 -34 33 -34 79 -1 111 32 33 68 32 94
-1z"/>
<path d="M7813 4328 c-22 -6 -38 -19 -49 -39 -28 -55 -4 -91 79 -118 26 -9 37
-18 37 -32 0 -26 -52 -26 -95 1 l-33 20 -6 -22 c-9 -36 -8 -38 37 -58 62 -29
103 -26 138 9 53 53 29 118 -51 136 -33 7 -55 29 -45 45 8 13 48 13 80 -2 28
-13 30 -12 39 18 5 15 1 24 -11 29 -37 15 -89 21 -120 13z"/>
<path d="M8101 4322 c-98 -49 -105 -182 -13 -235 94 -55 205 9 205 118 0 54
-30 98 -83 119 -51 20 -67 20 -109 -2z m104 -67 c45 -44 24 -116 -37 -131 -21
-4 -33 0 -52 20 -36 35 -35 87 0 115 35 27 59 26 89 -4z"/>
<path d="M9370 4322 c-116 -58 -101 -217 23 -250 81 -22 156 30 165 116 6 66
-17 108 -71 133 -52 23 -73 24 -117 1z m97 -57 c26 -18 39 -75 24 -103 -5 -10
-24 -25 -41 -32 -28 -11 -34 -11 -58 7 -43 32 -43 110 0 131 32 15 50 14 75
-3z"/>
<path d="M10003 4328 c-63 -16 -84 -90 -38 -127 14 -11 39 -22 55 -26 33 -7
55 -29 45 -45 -10 -16 -57 -12 -92 9 -33 21 -43 15 -43 -25 0 -19 76 -53 118
-54 42 0 92 46 92 85 0 31 -40 71 -80 80 -33 7 -55 29 -45 45 9 15 57 12 83
-6 24 -16 21 -18 36 30 7 23 -84 46 -131 34z"/>
<path d="M5830 4300 c0 -27 3 -30 30 -30 l29 0 3 -102 3 -103 30 0 30 0 3 103
3 102 29 0 c27 0 30 3 30 30 l0 30 -95 0 -95 0 0 -30z"/>
<path d="M6090 4200 l0 -130 100 0 c100 0 100 0 100 25 0 23 -3 24 -67 27 -62
3 -68 5 -71 26 -3 20 1 22 42 22 44 0 46 1 46 30 0 29 -2 30 -46 30 -41 0 -45
2 -42 23 3 20 9 22 71 25 64 3 67 4 67 27 0 25 0 25 -100 25 l-100 0 0 -130z"/>
<path d="M6664 4317 c-2 -7 -3 -67 -2 -133 l3 -119 30 0 c29 0 30 2 33 48 l3
47 50 0 49 0 0 -50 c0 -49 1 -50 30 -50 l30 0 0 135 0 135 -30 0 c-30 0 -30
-1 -30 -55 l0 -55 -50 0 -50 0 0 55 c0 55 0 55 -30 55 -17 0 -33 -6 -36 -13z"/>
<path d="M6962 4198 l3 -133 27 -3 27 -3 3 78 3 78 53 -77 c42 -62 58 -78 77
-78 l25 0 0 135 0 135 -30 0 -30 0 0 -77 0 -78 -50 78 c-44 68 -53 77 -80 77
l-31 0 3 -132z"/>
<path d="M8370 4195 l0 -135 80 0 80 0 0 30 c0 29 -1 30 -50 30 l-50 0 0 105
0 105 -30 0 -30 0 0 -135z"/>
<path d="M8600 4244 c0 -108 16 -146 70 -168 49 -19 91 -12 122 21 20 22 23
36 26 129 l4 104 -31 0 -31 0 0 -89 c0 -82 -2 -91 -22 -105 -28 -20 -33 -20
-52 0 -12 12 -16 37 -16 105 l0 89 -35 0 -35 0 0 -86z"/>
<path d="M8894 4315 c-11 -27 4 -45 36 -45 l30 0 0 -105 0 -105 30 0 30 0 0
104 0 105 33 3 c27 2 33 8 35 31 l3 27 -96 0 c-76 0 -97 -3 -101 -15z"/>
<path d="M9160 4195 l0 -135 30 0 30 0 0 135 0 135 -30 0 -30 0 0 -135z"/>
<path d="M9634 4317 c-2 -7 -3 -67 -2 -133 l3 -119 30 0 30 0 3 73 3 73 50
-76 c44 -68 53 -76 77 -73 l27 3 0 130 0 130 -30 0 -30 0 -5 -70 -5 -70 -45
72 c-38 61 -49 72 -73 73 -15 0 -30 -6 -33 -13z"/>
</g>
</svg>
